<?xml version="1.0" encoding="utf-8"?>
<svg viewBox="0 0 500 500" xmlns="http://www.w3.org/2000/svg">
  <path fill="#c0c0c9" d="M 289.063 83.651 C 279.742 78.648 268.421 79.193 259.623 85.068 L 136.362 167.251 L 89.626 167.251 C 77.732 167.27 67.826 176.377 66.81 188.227 L 60.213 188.227 C 38.007 188.253 20.015 206.253 20 228.459 L 20 271.552 C 20 293.724 38.032 311.774 60.213 311.774 L 66.81 311.774 C 67.826 323.624 77.732 332.732 89.626 332.75 L 136.362 332.75 L 259.614 414.934 C 268.413 420.805 279.732 421.35 289.054 416.351 C 298.388 411.37 304.215 401.648 304.206 391.069 L 304.206 108.933 C 304.206 98.334 298.41 88.647 289.063 83.651 Z M 66.718 289.004 L 60.204 289.004 C 50.568 288.989 42.762 281.179 42.752 271.543 L 42.752 228.45 C 42.762 218.814 50.568 211.003 60.204 210.988 L 66.708 210.988 L 66.708 289.004 Z M 128.422 309.989 L 89.626 309.989 C 89.539 309.989 89.469 309.919 89.469 309.833 L 89.469 190.159 C 89.469 190.067 89.543 190.003 89.626 190.003 L 128.422 190.003 L 128.422 309.989 Z M 281.455 391.06 C 281.485 393.253 280.274 395.276 278.327 396.285 C 276.407 397.346 274.054 397.232 272.246 395.991 L 151.174 315.279 L 151.174 184.713 L 272.246 104.011 C 274.052 102.774 276.4 102.66 278.318 103.716 C 280.262 104.724 281.472 106.742 281.446 108.933 L 281.446 391.06 Z M 420.347 105.768 C 414.801 100.166 405.271 102.669 403.193 110.272 C 402.219 113.836 403.241 117.649 405.866 120.249 C 440.458 154.85 459.521 200.933 459.521 249.996 C 459.521 299.069 440.468 345.143 405.866 379.744 C 400.265 385.29 402.767 394.82 410.371 396.898 C 413.935 397.872 417.748 396.85 420.347 394.225 C 458.812 355.759 480 304.534 480 249.996 C 480 195.459 458.812 144.233 420.347 105.768 Z M 364.108 162.007 C 358.562 156.406 349.032 158.908 346.954 166.512 C 345.98 170.076 347.001 173.889 349.627 176.488 C 369.171 195.947 380.116 222.417 380.024 249.996 C 380.024 277.799 369.223 303.908 349.627 323.504 C 344.025 329.05 346.528 338.58 354.131 340.658 C 357.695 341.632 361.508 340.611 364.108 337.985 C 387.507 314.695 400.616 283.011 400.512 249.996 C 400.512 216.729 387.586 185.477 364.117 162.007 Z"/>
</svg>