<?xml version="1.0" encoding="utf-8"?>
<svg viewBox="0 0 500 500" xmlns="http://www.w3.org/2000/svg">
  <path fill="#F2717C" d="M 289.063 83.652 C 279.742 78.648 268.421 79.193 259.623 85.069 L 136.361 167.253 L 89.625 167.253 C 77.732 167.271 67.825 176.379 66.809 188.229 L 60.213 188.229 C 38.007 188.254 20.016 206.255 20 228.46 L 20 271.553 C 20 293.725 38.032 311.775 60.213 311.775 L 66.809 311.775 C 67.825 323.626 77.732 332.733 89.625 332.751 L 136.361 332.751 L 259.614 414.935 C 268.414 420.806 279.732 421.351 289.054 416.351 C 298.388 411.372 304.214 401.649 304.207 391.07 L 304.207 108.933 C 304.207 98.335 298.411 88.647 289.063 83.652 Z M 66.717 289.005 L 60.204 289.005 C 50.568 288.99 42.762 281.179 42.751 271.543 L 42.751 228.451 C 42.762 218.815 50.568 211.004 60.204 210.989 L 66.709 210.989 L 66.709 289.005 Z M 128.422 309.991 L 89.625 309.991 C 89.539 309.991 89.469 309.921 89.469 309.834 L 89.469 190.161 C 89.469 190.069 89.543 190.004 89.625 190.004 L 128.422 190.004 L 128.422 309.991 Z M 281.455 391.061 C 281.485 393.254 280.274 395.277 278.327 396.287 C 276.407 397.347 274.054 397.233 272.245 395.992 L 151.173 315.281 L 151.173 184.714 L 272.245 104.011 C 274.052 102.774 276.401 102.66 278.317 103.717 C 280.262 104.725 281.472 106.743 281.445 108.933 L 281.445 391.061 Z M 420.347 105.769 C 414.801 100.167 405.272 102.67 403.194 110.273 C 402.219 113.837 403.241 117.65 405.867 120.249 C 440.459 154.851 459.521 200.933 459.521 249.997 C 459.521 299.07 440.467 345.143 405.867 379.745 C 400.265 385.291 402.767 394.82 410.371 396.898 C 413.935 397.873 417.747 396.851 420.347 394.225 C 458.813 355.761 480 304.535 480 249.997 C 480 195.459 458.813 144.234 420.347 105.769 Z M 364.107 162.009 C 358.562 156.407 349.032 158.909 346.953 166.513 C 345.979 170.077 347.001 173.889 349.627 176.489 C 369.17 195.948 380.116 222.418 380.023 249.997 C 380.023 277.799 369.223 303.909 349.627 323.505 C 344.025 329.051 346.528 338.581 354.131 340.659 C 357.695 341.634 361.508 340.612 364.107 337.986 C 387.508 314.696 400.617 283.012 400.512 249.997 C 400.512 216.73 387.586 185.477 364.117 162.009 Z"/>
</svg>