<svg viewBox="0 0 500 500" xmlns="http://www.w3.org/2000/svg"><path fill="#c0c0c9" d="M292.46 69.19a31.12 31.12 0 0 0-32 1.54l-133.98 89.33h-50.8a24.93 24.93 0 0 0-24.8 22.8h-7.17A43.76 43.76 0 0 0 0 226.59v46.84c0 24.1 19.6 43.72 43.71 43.72h7.17a24.93 24.93 0 0 0 24.8 22.8h50.8l133.97 89.33a31.14 31.14 0 0 0 32 1.54 31.12 31.12 0 0 0 16.47-27.48V96.67c0-11.52-6.3-22.05-16.46-27.48zM50.78 292.4H43.7a19 19 0 0 1-18.97-18.98v-46.84A19 19 0 0 1 43.7 207.6h7.07v84.8zm67.07 22.81H75.68a.17.17 0 0 1-.17-.17V184.96c0-.1.08-.17.17-.17h42.17v130.42zm166.34 88.12a6.3 6.3 0 0 1-3.4 5.68 6.3 6.3 0 0 1-6.61-.32l-131.6-87.73V179.04l131.6-87.72a6.3 6.3 0 0 1 6.6-.32 6.3 6.3 0 0 1 3.4 5.67v306.66zM435.16 93.23a11.13 11.13 0 1 0-15.74 15.74c37.6 37.61 58.32 87.7 58.32 141.03 0 53.34-20.71 103.42-58.32 141.03a11.13 11.13 0 1 0 15.74 15.74C476.97 364.96 500 309.28 500 250c0-59.28-23.03-114.96-64.84-156.77zM374.03 154.36a11.13 11.13 0 1 0-15.74 15.74 112.22 112.22 0 0 1 33.04 79.9c0 30.22-11.74 58.6-33.04 79.9a11.13 11.13 0 1 0 15.74 15.74A134.34 134.34 0 0 0 413.6 250c0-36.16-14.05-70.13-39.56-95.64z"/></svg>