<svg viewBox="0 0 500 500" xmlns="http://www.w3.org/2000/svg">
  <path fill="#c0c0c9" d="M314.968 232.307l-110.462-61.891c-6.351-3.559-13.858-3.426-20.084.352-6.229 3.781-9.945 10.46-9.945 17.875v122.718c0 7.379 3.693 14.047 9.88 17.832 3.231 1.977 6.813 2.969 10.403 2.969 3.288 0 6.584-.832 9.617-2.504l110.465-60.824c6.557-3.613 10.65-10.594 10.681-18.223.027-7.629-4.017-14.64-10.555-18.304zm-111.19 63.617v-91.719l82.557 46.258zm0 0"/>
  <path fill="#c0c0c9" d="M496.318 147.63l-.022-.235c-.424-4.121-4.639-40.777-22.042-59.421-20.114-21.93-42.918-24.594-53.886-25.872-.907-.105-1.739-.203-2.483-.304l-.873-.094c-66.101-4.922-165.927-5.594-166.927-5.598l-.087-.004-.088.004c-.999.004-100.826.676-167.521 5.598l-.881.094c-.71.097-1.492.187-2.343.289-10.841 1.281-33.401 3.949-53.573 26.672-16.575 18.445-21.366 54.316-21.858 58.347l-.057.524C3.528 149.345 0 190.169 0 231.153v38.313c0 40.984 3.528 81.808 3.677 83.527l.027.258c.423 4.055 4.634 40.039 21.957 58.691 18.913 21.196 42.827 24 55.69 25.508 2.033.238 3.784.441 4.978.656l1.156.164c38.166 3.719 157.828 5.551 162.902 5.625l.152.004.153-.004c.999-.004 100.822-.675 166.922-5.597l.874-.094c.835-.113 1.774-.215 2.804-.324 10.78-1.172 33.218-3.606 53.111-26.02 16.575-18.449 21.37-54.32 21.858-58.347l.057-.524c.149-1.719 3.682-42.539 3.682-83.523v-38.313c-.004-40.984-3.533-81.804-3.682-83.523zm-25.623 121.836c0 37.933-3.234 77-3.54 80.586-1.243 9.879-6.298 32.574-14.373 41.562-12.451 14.027-25.242 15.418-34.58 16.43-1.129.121-2.175.238-3.121.359-63.934 4.735-159.991 5.461-164.416 5.488-4.963-.074-122.874-1.921-159.876-5.441-1.896-.316-3.945-.559-6.104-.809-10.952-1.285-25.943-3.042-37.471-16.027l-.271-.297c-7.935-8.465-12.844-29.687-14.092-41.148-.232-2.711-3.551-42.238-3.551-80.703v-38.313c0-37.89 3.227-76.914 3.54-80.574 1.484-11.637 6.634-32.957 14.374-41.574C60.046 94.552 73.577 92.95 82.526 91.891c.855-.101 1.652-.195 2.388-.292 64.865-4.758 161.612-5.465 165.084-5.493 3.471.024 100.184.735 164.473 5.493.79.101 1.652.203 2.579.312 9.204 1.074 23.117 2.699 35.884 16.645l.119.128c7.934 8.465 12.843 30.059 14.091 41.75.221 2.559 3.551 42.172 3.551 80.719zm0 0"/>
</svg>
