<?xml version="1.0" encoding="utf-8"?>
<svg viewBox="0 0 500 500" xmlns="http://www.w3.org/2000/svg">
  <path fill="#c0c0c9" d="M 309.771 233.723 L 208.146 176.783 C 202.303 173.509 195.396 173.631 189.668 177.107 C 183.938 180.585 180.519 186.73 180.519 193.552 L 180.519 306.452 C 180.519 313.241 183.916 319.376 189.608 322.858 C 192.581 324.677 195.876 325.589 199.179 325.589 C 202.204 325.589 205.236 324.824 208.027 323.286 L 309.655 267.327 C 315.687 264.003 319.453 257.581 319.481 250.562 C 319.506 243.544 315.786 237.093 309.771 233.723 Z M 207.476 292.25 L 207.476 207.869 L 283.428 250.426 Z M 207.476 292.25"/>
  <path fill="#c0c0c9" d="M 476.613 155.819 L 476.592 155.603 C 476.202 151.811 472.324 118.088 456.314 100.935 C 437.809 80.76 416.829 78.309 406.739 77.133 C 405.904 77.036 405.139 76.946 404.454 76.853 L 403.651 76.767 C 342.838 72.239 250.998 71.62 250.078 71.617 L 249.998 71.613 L 249.917 71.617 C 248.998 71.62 157.157 72.239 95.798 76.767 L 94.987 76.853 C 94.334 76.943 93.615 77.025 92.832 77.119 C 82.858 78.298 62.103 80.752 43.545 101.657 C 28.296 118.627 23.888 151.628 23.435 155.337 L 23.383 155.819 C 23.246 157.397 20 194.955 20 232.66 L 20 267.908 C 20 305.613 23.246 343.171 23.383 344.753 L 23.408 344.99 C 23.797 348.721 27.671 381.826 43.608 398.986 C 61.008 418.486 83.009 421.066 94.843 422.453 C 96.713 422.672 98.324 422.859 99.423 423.057 L 100.486 423.208 C 135.599 426.629 245.688 428.315 250.356 428.383 L 250.496 428.386 L 250.637 428.383 C 251.556 428.379 343.393 427.762 404.205 423.233 L 405.009 423.147 C 405.777 423.043 406.641 422.949 407.589 422.849 C 417.506 421.771 438.149 419.531 456.451 398.91 C 471.7 381.937 476.111 348.936 476.56 345.231 L 476.613 344.749 C 476.75 343.168 480 305.613 480 267.908 L 480 232.66 C 479.996 194.955 476.75 157.4 476.613 155.819 Z M 453.039 267.908 C 453.039 302.806 450.064 338.748 449.783 342.047 C 448.639 351.136 443.988 372.015 436.559 380.284 C 425.105 393.189 413.337 394.469 404.746 395.4 C 403.707 395.511 402.745 395.619 401.875 395.73 C 343.055 400.086 254.683 400.754 250.612 400.779 C 246.046 400.711 137.568 399.012 103.526 395.773 C 101.782 395.482 99.896 395.259 97.91 395.029 C 87.834 393.847 74.043 392.23 63.437 380.284 L 63.188 380.011 C 55.887 372.223 51.371 352.699 50.223 342.155 C 50.009 339.661 46.956 303.296 46.956 267.908 L 46.956 232.66 C 46.956 197.801 49.925 161.899 50.213 158.532 C 51.578 147.826 56.316 128.211 63.437 120.284 C 75.242 106.987 87.691 105.513 95.924 104.539 C 96.711 104.446 97.444 104.359 98.121 104.27 C 157.797 99.893 246.804 99.242 249.998 99.217 C 253.191 99.239 342.167 99.893 401.313 104.27 C 402.04 104.363 402.833 104.457 403.686 104.557 C 412.154 105.545 424.954 107.04 436.699 119.871 L 436.809 119.988 C 444.108 127.776 448.624 147.643 449.773 158.398 C 449.976 160.753 453.039 197.197 453.039 232.66 Z M 453.039 267.908"/>
</svg>